<?xml version="1.0" encoding="iso-8859-1"?>
<!-- Generator: Adobe Illustrator 17.1.0, SVG Export Plug-In . SVG Version: 6.00 Build 0)  -->
<!DOCTYPE svg PUBLIC "-//W3C//DTD SVG 1.1//EN" "http://www.w3.org/Graphics/SVG/1.1/DTD/svg11.dtd">
<svg version="1.1" id="Capa_1" xmlns="http://www.w3.org/2000/svg" xmlns:xlink="http://www.w3.org/1999/xlink" x="0px" y="0px"
	 viewBox="0 0 321.309 321.309" style="enable-background:new 0 0 321.309 321.309;" xml:space="preserve">
<g>
	<path d="M197,59.654H85c-8.284,0-15,6.716-15,15s6.716,15,15,15h112c8.284,0,15-6.716,15-15S205.284,59.654,197,59.654z"/>
	<path d="M197,116.654H85c-8.284,0-15,6.716-15,15c0,8.284,6.716,15,15,15h112c8.284,0,15-6.716,15-15
		C212,123.37,205.284,116.654,197,116.654z"/>
	<path d="M197,173.654H85c-8.284,0-15,6.716-15,15c0,8.284,6.716,15,15,15h112c8.284,0,15-6.716,15-15
		C212,180.37,205.284,173.654,197,173.654z"/>
	<path d="M197,230.654H85c-8.284,0-15,6.716-15,15c0,8.284,6.716,15,15,15h112c8.284,0,15-6.716,15-15
		C212,237.37,205.284,230.654,197,230.654z"/>
	<path d="M320.586,202.354c-1.19-2.288-3.652-3.7-6.586-3.7h-32V29.904c0-12.477-9.663-22.25-22-22.25H23
		c-12.683,0-23,9.981-23,22.25v261c0,12.332,10.533,22.75,23,22.75h202c6.903,0,12.5-5.597,12.5-12.5c0-6.903-5.597-12.5-12.5-12.5
		H25v-256h232v166h-31.82c-2.934,0-5.396,1.414-6.587,3.702c-1.191,2.288-0.896,5.113,0.787,7.514l43.817,62.556
		c1.55,2.214,3.88,3.489,6.391,3.489c2.511,0,4.841-1.266,6.39-3.479l43.823-62.571
		C321.483,207.464,321.776,204.641,320.586,202.354z"/>
</g>
<g>
</g>
<g>
</g>
<g>
</g>
<g>
</g>
<g>
</g>
<g>
</g>
<g>
</g>
<g>
</g>
<g>
</g>
<g>
</g>
<g>
</g>
<g>
</g>
<g>
</g>
<g>
</g>
<g>
</g>
</svg>
